<?xml version="1.0" encoding="utf-8"?>
<!-- Generator: Adobe Illustrator 26.5.0, SVG Export Plug-In . SVG Version: 6.00 Build 0)  -->
<svg version="1.1" id="Layer_1" xmlns="http://www.w3.org/2000/svg" xmlns:xlink="http://www.w3.org/1999/xlink" x="0px" y="0px"
	 viewBox="0 0 956.02 267.41" style="enable-background:new 0 0 956.02 267.41;" xml:space="preserve">
<style type="text/css">
	.st0{fill:#FFCB05;}
	.st1{fill:#A952A0;}
	.st2{fill:#F2633A;}
	.st3{fill:#FFFFFF;}
</style>
<g>
	
		<rect x="64.98" y="65.02" transform="matrix(-1 -1.224647e-16 1.224647e-16 -1 198.6586 198.743)" class="st0" width="68.71" height="68.71"/>
	<path class="st1" d="M133.68,133.72h68.71v0c0,37.95-30.76,68.71-68.71,68.71H64.98v0C64.98,164.49,95.74,133.72,133.68,133.72z"/>
	<path class="st2" d="M168.03,65.02L168.03,65.02c18.97,0,34.35,15.38,34.35,34.35v0c0,18.97-15.38,34.35-34.35,34.35h0
		c-18.97,0-34.35-15.38-34.35-34.35v0C133.68,80.4,149.06,65.02,168.03,65.02z"/>
</g>
<g>
	<path class="st3" d="M236.74,155.69l17.14-2.41c2.5,7.84,8.74,12.06,17.6,12.06c8.86,0,14.19-3.86,14.08-10.37
		c-0.23-17.12-45.87-5.91-45.87-38.71c0-15.32,12.26-25.57,29.86-25.57c17.83,0,29.86,8.08,33.04,23.64l-16.46,2.41
		c-2.61-7-7.83-10.61-16.01-10.61c-8.06,0-12.94,3.74-12.94,9.77c0,18.57,46.44,5.3,46.44,38.47c0,15.8-12.6,26.17-32.02,26.17
		C253.43,180.54,240.26,171.61,236.74,155.69z"/>
	<path class="st3" d="M316.79,151.83v-27.62h-9.2v-13.87h9.2V97.93l17.37-3.86v16.28h17.71v13.87h-17.71v25.93
		c0,11.7,3.18,15.8,11.69,15.8c1.36,0,2.84-0.24,5.22-0.6l2.27,13.87c-2.61,0.72-7.04,1.21-10.45,1.21
		C325.19,180.42,316.79,172.82,316.79,151.83z"/>
	<path class="st3" d="M356.07,144.84c0-23.15,12.6-35.82,28.72-35.82c9.2,0,17.48,4.82,20.78,13.02v-11.7h17.26v68.86h-17.26v-11.21
		c-3.18,7.96-11.58,12.9-20.66,12.9C368.78,180.9,356.07,167.99,356.07,144.84z M406.14,144.84c0-12.9-6.81-20.62-16.46-20.62
		c-9.54,0-16.35,7.6-16.35,20.62c0,13.14,6.81,20.74,16.46,20.74C399.33,165.58,406.14,157.86,406.14,144.84z"/>
	<path class="st3" d="M430.73,110.35h17.26v10.37c2.27-6.39,8.97-12.78,21.91-11.22l-1.7,17.37c-12.94-2.53-20.21,3.86-20.21,19.9
		v32.56h-17.26V110.35z"/>
	<path class="st3" d="M484.96,151.83v-27.62h-9.2v-13.87h9.2V97.93l17.37-3.86v16.28h17.71v13.87h-17.71v25.93
		c0,11.7,3.18,15.8,11.69,15.8c1.36,0,2.84-0.24,5.22-0.6l2.27,13.87c-2.61,0.72-7.04,1.21-10.44,1.21
		C493.36,180.42,484.96,172.82,484.96,151.83z"/>
	<path class="st3" d="M530.3,92.02h27.93c27.82,0,35.2,9.89,35.2,23.15c0,11.34-5.45,17.85-13.96,19.78
		c9.65,1.69,16.46,7.96,16.46,20.14c0,13.63-7.72,24.24-36.22,24.24H530.3V92.02z M558.45,128.8c11.69,0,16.35-3.5,16.35-11.09
		c0-7.24-3.86-10.01-16.58-10.01h-10.22v21.1H558.45z M559.82,163.77c12.83,0,17.6-3.62,17.6-10.97c0-7.96-4.2-11.22-17.48-11.22
		h-11.92v22.19H559.82z"/>
	<path class="st3" d="M601.91,87.92h17.37v91.41h-17.37V87.92z"/>
	<path class="st3" d="M625.13,144.84c0-24.84,16.58-35.82,33.61-35.82c16.92,0,33.49,10.97,33.49,35.82
		c0,25.08-16.46,36.06-33.49,36.06C641.71,180.9,625.13,169.92,625.13,144.84z M675.09,144.84c0-12.9-6.81-20.62-16.46-20.62
		c-9.54,0-16.35,7.6-16.35,20.62c0,13.14,6.81,20.74,16.46,20.74C668.39,165.58,675.09,157.86,675.09,144.84z"/>
	<path class="st3" d="M697.85,144.84c0-21.1,13.85-35.82,32.7-35.82c17.37,0,27.93,8.32,31.22,25.08l-15.1,2.53
		c-2.5-8.2-7.61-12.42-15.33-12.42c-9.65,0-16.24,8.32-16.24,20.62c0,12.3,6.59,20.5,16.24,20.5c7.27,0,12.94-4.58,15.1-12.3
		l15.21,2.53c-2.95,16.04-14.31,25.08-31.11,25.08C711.7,180.66,697.85,165.94,697.85,144.84z"/>
	<path class="st3" d="M809.49,179.33l-24.86-33.28v33.28h-17.26V87.92h17.26v53.54l23.61-31.11h21l-27.02,33.16l28.38,35.82H809.49z
		"/>
	<path class="st3" d="M830.53,161.72l15.67-2.77c2.38,5.43,7.95,8.56,15.33,8.56c7.72,0,12.15-2.77,12.15-7.6
		c0-13.75-40.99-2.53-40.76-30.15c0.23-12.42,11.81-20.62,27.93-20.62c13.4,0,25.43,6.63,28.61,17.37l-15.44,2.89
		c-1.93-4.7-6.93-7.48-12.72-7.48c-7.15,0-11.35,2.65-11.35,7.24c0,13.75,41.1,1.45,41.1,29.06c0,13.75-11.47,22.31-29.63,22.31
		C845.29,180.54,833.71,172.94,830.53,161.72z"/>
</g>
</svg>
